<?xml version="1.0" encoding="UTF-8"?>
<!-- Created with Inkscape (http://www.inkscape.org/) -->
<svg id="svg8" width="768" height="256" version="1.1" viewBox="0 0 203.2 67.733" xmlns="http://www.w3.org/2000/svg" xmlns:cc="http://creativecommons.org/ns#" xmlns:dc="http://purl.org/dc/elements/1.1/" xmlns:rdf="http://www.w3.org/1999/02/22-rdf-syntax-ns#">
 <metadata id="metadata5">
  <rdf:RDF>
   <cc:Work rdf:about="">
    <dc:format>image/svg+xml</dc:format>
    <dc:type rdf:resource="http://purl.org/dc/dcmitype/StillImage"/>
    <dc:title/>
   </cc:Work>
  </rdf:RDF>
 </metadata>
 <g id="layer1" transform="translate(0 -229.27)">
  <g id="flowRoot815" transform="matrix(.52727 0 0 .52727 -15.031 213.12)" fill="#19857b" aria-label="Haiku.lt">
   <path id="path881" d="m85.884 130.56q0 1.344-0.864 2.208-0.768 0.768-1.44 0.96-0.576 0.096-1.056 0.096-2.304 0-3.264-4.704-0.96-4.8-1.248-17.376-0.384-18.144-1.44-18.144-0.768 0-3.456 1.248t-8.16 3.744q-5.472 2.496-11.04 4.608l-8.064 3.072 0.576 17.376q0.192 6.72 0.192 8.736 0 10.752-2.208 10.752-0.48 0-1.536-0.672-2.016-1.44-2.976-9.792t-2.112-34.176q-0.768-17.568-0.768-27.84 0-8.352 0.768-10.176 0.576-1.44 1.44-2.4 0.864-1.056 1.536-1.056 1.536 0 3.072 20.064 1.536 19.968 3.072 19.968 0.192 0 1.44-0.48 1.248-0.576 6.24-2.4 5.088-1.824 12.768-4.224 6.624-2.208 7.68-3.264 1.248-1.056 2.112-8.544 0.768-6.912 1.536-9.216 0.768-2.4 2.4-2.4 2.112 0 2.784 6.048 0.768 6.048 0.864 25.728 0.096 7.584 0.192 13.44 0.192 5.76 0.288 8.832 0.192 2.976 0.288 5.088 0.096 2.016 0.192 2.688t0.096 1.248q0.096 0.48 0.096 0.96z"/>
   <path id="path883" d="m127.26 89.564q-4.416 0-9.408 1.824-4.896 1.824-8.736 3.744-3.84 1.824-5.568 1.824-1.152 0-1.152-0.96 0-1.344 0.576-2.304t2.112-1.824 2.88-1.44q1.44-0.576 4.512-1.632 3.072-1.152 5.28-2.112 5.184-2.016 8.736-2.016 6.336 0 9.888 6.912 1.728 3.36 2.016 6.24 0.288 2.784 0.48 15.84 0.096 7.296 0.288 12.288 0.192 4.896 0.384 6.24l0.192 1.248q0 1.344-1.248 2.88-1.152 1.536-1.728 1.536-1.92 0-2.976-6.048-1.056-6.144-1.152-6.144-0.288 0-0.864 1.056-1.92 3.168-7.776 7.008-5.76 3.744-9.696 3.744-2.4 0-5.664-0.864-3.168-0.96-4.608-2.016-1.056-0.864-1.824-3.456-0.672-2.592-0.672-5.28 0-4.032 2.112-6.912 2.208-2.976 7.776-6.048 6.048-3.552 11.712-3.552 2.304 0 3.84 0.768t2.304 1.632q0.768 0.768 1.248 0.768 0.384 0 1.824 1.056 1.44 0.96 1.536 0.96 0.384 0 0.384-2.112 0-12.864-1.824-17.856-1.728-4.992-5.184-4.992zm4.32 29.76q0-0.384-0.288-0.864-0.192-0.576-0.96-1.248-0.672-0.768-1.824-1.344-1.056-0.672-2.976-1.056-1.92-0.48-4.32-0.48-4.128 0-7.296 1.44-3.072 1.44-4.608 3.648t-2.304 4.128q-0.672 1.824-0.672 3.264 0 2.4 0.384 3.264 0.48 0.864 2.208 1.824 2.112 1.056 3.84 1.056 3.264 0 8.064-2.304 4.896-2.4 4.896-3.456 0-0.768 2.88-3.648 2.976-2.976 2.976-4.224z"/>
   <path id="path885" d="m156.83 82.652q1.344-1.152 2.304-1.152 2.016 0 2.88 6.432 0.96 6.336 1.728 24.48 0.384 8.448 0.384 15.264t-0.576 7.488q-1.152 1.44-2.88 1.44-2.4 0-2.976-2.016-0.48-1.248-1.44-19.392-0.96-18.24-0.96-25.344 0-5.952 1.536-7.2zm-0.576-22.56q0-1.344 1.056-2.688 1.152-1.344 2.016-1.344 0.96 0 2.592 1.344 1.728 1.248 1.728 3.264 0 1.44-0.864 2.496-0.768 0.96-2.112 0.96-1.536 0-2.976-1.152t-1.44-2.88z"/>
   <path id="path887" d="m177.37 64.7q0-3.456 2.208-3.456 1.824 0 2.688 2.208 0.576 1.344 1.248 8.256 0.768 6.912 1.536 15.552 0.864 8.64 1.44 12.288l0.768 5.568 10.944-10.944q5.856-5.856 8.256-7.872 2.4-2.112 3.552-2.112 0.672 0 1.44 0.96 0.864 0.96 0.864 1.92 0 0.672-0.384 1.152-0.288 0.384-0.864 0.768-0.48 0.288-1.632 1.536t-2.496 3.072q-4.512 6.432-15.168 14.976-3.84 2.976-3.84 4.992 0 1.344 1.728 2.208l10.272 4.8q7.104 3.36 11.808 6.72t4.704 5.184q0 2.016-1.92 2.016-1.728 0-5.088-2.304-3.36-2.4-4.224-2.4-1.152 0-1.152-0.768 0-1.056-11.712-5.376l-5.088-1.92 0.672 7.968q0.288 3.168 0.288 4.992 0 4.032-2.016 4.032-3.072 0-3.936-4.224-0.768-4.32-1.44-21.792-0.576-15.456-1.44-20.16-0.864-4.608-1.44-13.344t-0.576-14.496z"/>
   <path id="path889" d="m229.6 103.58q0-17.952 2.688-17.952 0.48 0 0.96 0.192 0.576 0.192 1.344 1.44 0.768 1.152 0.768 3.264 0 0.96-0.192 3.264-0.192 2.208-0.192 4.992 0 7.776 0.864 18.912t1.824 14.592q0.96 3.744 3.264 3.744 2.208 0 6.72-3.936 5.568-4.896 10.656-15.264 5.184-10.368 7.2-20.736 1.92-10.176 3.168-10.848 0.96-0.672 2.016-0.672 2.304 0 2.304 2.688 0 1.344-1.44 11.232-1.344 9.888-1.344 14.208 0 6.048 2.4 15.072 2.496 9.024 2.496 10.176 0 0.96-0.768 1.536t-1.344 0.672q-0.48 0.192-0.768 0.192-1.728 0-3.456-4.896-1.632-4.896-2.976-9.792-1.248-4.896-2.208-4.896-0.192 0-0.384 0.096t-0.48 0.384q-0.192 0.192-0.384 0.48t-0.576 0.768q-0.288 0.48-0.576 0.864-0.192 0.384-0.672 1.152t-0.768 1.248q-4.224 6.624-9.408 11.04-5.088 4.416-8.64 4.416-4.032 0-6.048-1.824-2.016-1.728-3.264-6.336-1.152-4.608-2.112-14.592-0.672-6.336-0.672-14.88z"/>
   <path id="path891" d="m293.63 135.84q0-3.456 4.8-8.448 4.896-5.088 6.528-5.088 2.016 0 2.016-1.536 0-0.576 0.672-1.056 0.768-0.48 1.728-0.48t1.632 0.48 0.672 1.056q0 1.536 2.784 1.536 2.496 0 4.128 2.4 1.728 2.4 1.728 5.664 0 5.28-4.992 10.56-4.992 5.376-11.232 5.376-5.376 0-7.968-3.744-2.496-3.744-2.496-6.72zm12.384 0.384q1.728 0 3.36-1.536 1.728-1.536 1.728-2.208 0-0.48-1.248-0.48-2.304 0-3.744 0.96t-1.44 2.208q0 1.056 1.344 1.056z"/>
   <path id="path893" d="m342.11 60.668q0-7.392 0.384-11.232 0.384-3.936 0.96-4.992t1.632-1.056q0.96 0 1.536 0.864 0.576 0.96 3.456 44.448 2.976 43.488 2.976 45.216 0 1.248-0.576 1.728-0.576 0.384-1.92 0.384-2.304 0-2.976-3.264-0.672-3.36-1.92-20.832-1.536-21.12-2.976-37.728-0.576-6.24-0.576-13.536z"/>
   <path id="path895" d="m383.96 70.652q0-3.552-0.672-9.024t-0.672-9.12q0-1.824 0.096-2.4 0.288-1.536 1.056-2.4 0.864-0.96 1.728-0.96 1.152 0 1.632 1.056 0.288 0.672 0.864 7.104t1.056 12.576 0.672 6.336q0.096 0.096 0.288 0.096 0.768 0 4.416-0.768 3.744-0.864 6.144-0.864 4.8 0 4.8 2.112t-10.56 4.704l-4.8 1.152 0.576 16.224q0.48 14.304 1.824 26.784 1.344 12.384 1.344 14.016 0 2.976-2.208 2.976-1.728 0-2.88-3.072-1.056-3.072-1.056-7.968 0-3.552-0.288-7.2-0.288-3.744-1.056-11.52-0.672-7.872-1.344-16.128-0.288-4.416-0.48-6.816-0.096-2.4-0.288-3.552t-0.288-1.344q-0.096-0.288-0.384-0.288-1.536 0-7.392 1.056t-7.296 1.056q-2.784 0-2.784-2.304 0-1.632 3.456-2.784 3.552-1.152 7.968-2.016 4.416-0.96 5.472-1.632 1.056-0.768 1.056-5.088z"/>
  </g>
 </g>
</svg>
